#!OML:ASF F:\VICON\USERDATA\INSTALL\rory3\rory3.ASF
:FULLY-SPECIFIED
:DEGREES
1689
root 2.1615 10.1824 -5.95068 -195.696 195.836 -179.264
lowerback 32.6844 0.84365 6.28815
upperback 11.8781 3.0225 3.68072
thorax -4.10247 1.45353 -0.537378
lowerneck -18.9773 2.13143 -7.12697
upperneck 22.0293 5.80393 -2.63265
head 10.0879 1.74147 1.05823
rclavicle 4.29375e-014 2.22639e-014
rhumerus -39.4799 31.8909 -80.064
rradius 107.046
rwrist 47.9194
rhand -35.4782 9.60725
rfingers 7.12502
rthumb -8.60624 -20.1973
lclavicle 4.29375e-014 2.22639e-014
lhumerus -36.5783 -21.7557 92.4626
lradius 93.235
lwrist -25.6425
lhand -44.4078 9.62885
lfingers 7.12502
lthumb -17.2138 38.8864
rfemur -69.9526 -20.2131 8.23353
rtibia 110.119
rfoot -17.3811 -1.20057
rtoes -8.90762
lfemur -76.9379 25.8858 -10.8406
ltibia 113.168
lfoot -7.27239 -5.89409
ltoes -11.3416
1690
root 2.17117 10.184 -5.94687 -195.38 195.775 -179.465
lowerback 32.6727 0.839374 6.33724
upperback 11.7804 3.03789 3.65126
thorax -4.20415 1.45908 -0.605511
lowerneck -18.3676 2.1803 -7.08863
upperneck 22.1333 5.84386 -2.78489
head 10.0183 1.74951 0.995042
rclavicle -1.27222e-014 -9.54166e-015
rhumerus -39.5999 32.0657 -80.1643
rradius 106.944
rwrist 47.9961
rhand -35.6722 9.55337
rfingers 7.12502
rthumb -8.79349 -20.2434
lclavicle -1.27222e-014 -9.54166e-015
lhumerus -36.7806 -21.3907 92.5428
lradius 93.1801
lwrist -25.8279
lhand -44.4549 9.38677
lfingers 7.12502
lthumb -17.2591 38.6404
rfemur -70.2009 -20.2849 8.44597
rtibia 110.092
rfoot -17.2901 -0.93034
rtoes -8.02241
lfemur -76.7455 26.1277 -10.3298
ltibia 113.17
lfoot -7.35267 -5.63804
ltoes -7.70201
1691
root 2.18063 10.1855 -5.94266 -195.21 195.682 -179.473
lowerback 32.7291 0.845469 6.23463
upperback 11.8108 3.00814 3.53063
thorax -4.1951 1.44598 -0.672577
lowerneck -18.1465 2.23802 -7.05772
upperneck 22.3778 5.90699 -2.77838
head 10.0639 1.77369 0.999917
rclavicle -9.54166e-015 2.70347e-014
rhumerus -39.5183 32.1822 -80.2859
rradius 106.827
rwrist 48.1156
rhand -35.9437 9.39755
rfingers 7.12502
rthumb -9.0555 -20.3881
lclavicle -9.54166e-015 2.70347e-014
lhumerus -36.8505 -21.0241 92.4877
lradius 93.268
lwrist -25.7873
lhand -44.4542 9.4046
lfingers 7.12502
lthumb -17.2583 38.6583
rfemur -70.3582 -20.3447 8.3918
rtibia 110.078
rfoot -17.1924 -0.55865
rtoes -7.38781
lfemur -76.3239 26.3449 -9.99165
ltibia 113.116
lfoot -7.31757 -5.30831
ltoes -6.87654
1692
root 2.19181 10.1875 -5.93248 -195.026 195.773 -179.609
lowerback 32.7166 0.880189 6.24984
upperback 11.9591 3.03549 3.46774
thorax -4.01218 1.46716 -0.756806
lowerneck -18.1776 2.2407 -7.18215
upperneck 22.6346 5.94953 -2.70935
head 10.156 1.77776 1.05362
rclavicle 3.4191e-014 4.13472e-014
rhumerus -39.1458 32.3275 -80.063
rradius 106.777
rwrist 48.124
rhand -36.1581 9.26575
rfingers 7.12502
rthumb -9.26236 -20.5108
lclavicle 3.4191e-014 4.13472e-014
lhumerus -36.6179 -20.6712 92.3695
lradius 93.2601
lwrist -25.7798
lhand -44.4326 9.51346
lfingers 7.12502
lthumb -17.2376 38.7689
rfemur -70.4777 -20.2334 8.51814
rtibia 110.036
rfoot -17.2252 -0.349747
rtoes -7.41229
lfemur -75.8247 26.7568 -9.4661
ltibia 113.083
lfoot -6.80205 -5.42051
ltoes -6.58003
1693
root 2.20324 10.1865 -5.9201 -194.8 196.014 -179.846
lowerback 32.7771 0.946189 6.2857
upperback 12.0146 3.124 3.45698
thorax -3.96687 1.51111 -0.819149
lowerneck -17.9133 2.29434 -7.22508
upperneck 22.8372 6.03137 -2.74358
head 10.1784 1.80177 1.05729
rclavicle 1.90833e-014 6.52014e-014
rhumerus -39.0603 32.6073 -79.9152
rradius 106.848
rwrist 48.1
rhand -36.328 9.2606
rfingers 7.12502
rthumb -9.42632 -20.5086
lclavicle 1.90833e-014 6.52014e-014
lhumerus -36.5527 -20.2097 92.3101
lradius 93.254
lwrist -25.8797
lhand -44.4614 9.76102
lfingers 7.12502
lthumb -17.2653 39.0141
rfemur -70.6619 -19.9828 8.83936
rtibia 110.001
rfoot -17.2558 -0.266279
rtoes -8.20071
lfemur -75.4261 27.4254 -8.82251
ltibia 113.194
lfoot -7.17385 -5.44454
ltoes -12.4843
1694
root 2.21398 10.193 -5.90867 -194.572 196.231 -180.011
lowerback 32.8202 1.05259 6.24039
upperback 12.0899 3.23543 3.43551
thorax -3.89501 1.56586 -0.854183
lowerneck -17.7409 2.37565 -7.21936
upperneck 23.1573 6.1618 -2.80078
head 10.2621 1.84207 1.05465
rclavicle 5.56597e-015 -2.22639e-014
rhumerus -39.2405 32.771 -79.8243
rradius 107.158
rwrist 48.1248
rhand -36.3073 9.25384
rfingers 7.12502
rthumb -9.40631 -20.5163
lclavicle 5.56597e-015 -2.22639e-014
lhumerus -36.4019 -19.8494 92.2392
lradius 93.158
lwrist -25.9645
lhand -44.3318 9.85957
lfingers 7.12502
lthumb -17.1406 39.1235
rfemur -70.7934 -19.686 9.04712
rtibia 109.941
rfoot -17.4337 -0.0677139
rtoes -8.84417
lfemur -74.9933 28.0085 -8.22176
ltibia 113.349
lfoot -7.00633 -5.81359
ltoes -16.9918
1695
root 2.2245 10.198 -5.89549 -194.257 196.182 -180.143
lowerback 32.753 1.06745 6.13968
upperback 12.1422 3.21334 3.42919
thorax -3.81342 1.55532 -0.793357
lowerneck -17.5052 2.43949 -7.29879
upperneck 23.3935 6.28726 -2.88559
head 10.3031 1.87425 1.05299
rclavicle -5.88403e-014 -1.74931e-014
rhumerus -39.4336 33.0173 -79.5875
rradius 107.545
rwrist 47.9938
rhand -36.2167 9.18174
rfingers 7.12502
rthumb -9.31886 -20.5923
lclavicle -5.88403e-014 -1.74931e-014
lhumerus -36.2689 -19.4385 92.2414
lradius 93.1128
lwrist -26.0113
lhand -44.1618 9.70066
lfingers 7.12502
lthumb -16.977 38.9787
rfemur -71.0055 -19.8024 9.16643
rtibia 109.904
rfoot -17.5519 0.30226
rtoes -9.73754
lfemur -74.7219 28.2106 -7.82205
ltibia 113.389
lfoot -8.24882 -6.31506
ltoes -20.969
